<svg width="0" height="0" fill="none" style="visibility: hidden; position: absolute;" aria-hidden="true">
    <symbol id="bigH" width="697" height="799" viewBox="0 0 697 799" fill="none" xmlns="http://www.w3.org/2000/svg">
        <g clip-path="url(#clip0_22728_11332__bigH)">
            <path fill-rule="evenodd" clip-rule="evenodd"
                d="M245.112 340H432.082C485.793 340 530.618 362.912 558.49 401.63C586.34 440.35 587.199 504.956 570.958 555.498L550.194 620.023C541.522 646.966 500.918 774.384 493 799H391C391 799 392.559 800.366 477.767 535.5C485.29 512.126 489.586 474.185 477.767 457.777C465.968 441.37 446.06 431.66 419.718 431.66H266.886C236.876 431.66 210.283 451.178 200.999 480.005L245.112 340Z"
                fill="url(#paint0_linear_22728_11332__bigH)" />
            <path fill-rule="evenodd" clip-rule="evenodd"
                d="M99.3445 799H-0.369385C84.4982 532.509 170.329 266.331 255.698 0H355.276C354.856 1.33198 354.431 2.6675 353.999 4.00646C215.866 429.03 262.985 285.497 99.3445 799Z"
                fill="#F0145A" />
        </g>
        <defs>
            <linearGradient id="paint0_linear_22728_11332__bigH" x1="521.823" y1="798.999" x2="268.503" y2="516.696"
                gradientUnits="userSpaceOnUse">
                <stop stop-color="#F0145A" />
                <stop offset="1" stop-color="#693264" />
            </linearGradient>
            <clipPath id="clip0_22728_11332__bigH">
                <rect width="697" height="799" fill="white" />
            </clipPath>
        </defs>
    </symbol>
    <symbol id="closeBtn" width="32" height="32" viewBox="0 0 32 32" fill="none" xmlns="http://www.w3.org/2000/svg">
        <path d="M7 7L25 25" stroke="#EC6F5D" stroke-width="2" />
        <path d="M25 7L7 25" stroke="#EC6F5D" stroke-width="2" />
    </symbol>
    <symbol id="facebkBg" width="38" height="38" viewBox="0 0 38 38" fill="none" xmlns="http://www.w3.org/2000/svg">
        <path
            d="M38 19.1161C38 8.55857 29.4934 0 19 0C8.50658 0 0 8.55857 0 19.1161C0 28.6575 6.94803 36.5659 16.0312 38V24.6419H11.207V19.1161H16.0312V14.9046C16.0312 10.1136 18.8678 7.46723 23.2078 7.46723C25.2866 7.46723 27.4609 7.84059 27.4609 7.84059V12.545H25.0651C22.7048 12.545 21.9688 14.0185 21.9688 15.5302V19.1161H27.2383L26.3959 24.6419H21.9688V38C31.052 36.5659 38 28.6575 38 19.1161Z"
            fill="#24A3FF" />
    </symbol>
    <symbol id="facebkSml" width="24" height="24" viewBox="0 0 24 24" fill="none" xmlns="http://www.w3.org/2000/svg">
        <path
            d="M24 12.0733C24 5.40541 18.6274 0 12 0C5.37258 0 0 5.40541 0 12.0733C0 18.0995 4.38823 23.0943 10.125 24V15.5633H7.07813V12.0733H10.125V9.41343C10.125 6.38755 11.9165 4.71615 14.6576 4.71615C15.9705 4.71615 17.3438 4.95195 17.3438 4.95195V7.92313H15.8306C14.3399 7.92313 13.875 8.85379 13.875 9.80857V12.0733H17.2031L16.6711 15.5633H13.875V24C19.6118 23.0943 24 18.0995 24 12.0733Z"
            fill="#B3B3BA" />
    </symbol>
    <symbol id="hamburgerBtn" width="32" height="32" viewBox="0 0 32 32" fill="none" xmlns="http://www.w3.org/2000/svg">
        <path d="M7 10H25" stroke="#323264" stroke-width="2" />
        <path d="M7 16H25" stroke="#323264" stroke-width="2" />
        <path d="M7 22H25" stroke="#323264" stroke-width="2" />
    </symbol>
    <symbol id="logo4Dark" width="302" height="60" viewBox="0 0 302 60" fill="none" xmlns="http://www.w3.org/2000/svg">
        <g clip-path="url(#clip0_95529_3472__logo4Dark)">
            <path
                d="M4.95672 0H0V35.7986H4.95672V22.5177C4.95672 20.2709 5.51557 18.4984 6.63326 17.2502C7.75095 16.002 9.2817 15.353 11.1769 15.353C12.8049 15.353 14.1655 15.9521 15.2589 17.1004C16.3523 18.2738 16.9112 19.7466 16.9112 21.5191V35.8236H21.8922V21.5191C21.8922 18.2238 20.9932 15.6276 19.1951 13.6804C17.3971 11.7332 15.0402 10.7596 12.1731 10.7596C11.347 10.7596 10.5209 10.8594 9.71906 11.0841C8.89294 11.3088 8.2369 11.5584 7.70235 11.833C7.16781 12.1076 6.65756 12.4072 6.1959 12.7567C5.73424 13.1062 5.41838 13.3558 5.27259 13.5056C5.1268 13.6554 5.00532 13.7552 4.95672 13.8301V0Z"
                fill="#F0145A" />
            <path d="M32.9726 0H27.8628V35.7689H32.9726V0Z" fill="white" />
            <path
                d="M63.1114 25.293L63.3669 22.7381C63.3669 19.3145 62.2428 16.453 59.9433 14.1536C57.6439 11.8541 54.7824 10.73 51.3588 10.73C47.9352 10.73 44.9715 11.9563 42.5188 14.4091C40.0661 16.8618 38.8397 19.7744 38.8397 23.2491C38.8397 26.826 40.1172 29.8919 42.621 32.4468C45.1248 35.0017 48.1396 36.2792 51.6143 36.2792C52.9429 36.2792 54.1692 36.0748 55.3956 35.7171C56.6219 35.3083 57.6439 34.8995 58.3593 34.4907C59.1258 34.0308 59.8922 33.5199 60.5565 32.9578C61.2208 32.3957 61.6807 31.9869 61.8851 31.7314C62.0895 31.4759 62.2428 31.3226 62.345 31.1693L59.0236 27.8479L58.2571 28.8188C57.7461 29.432 56.8774 30.0452 55.6511 30.7095C54.3736 31.3737 53.0451 31.6803 51.6143 31.6803C49.6215 31.6803 47.9352 31.0671 46.5045 29.7897C45.0737 28.5122 44.205 27.0304 43.9495 25.293H63.1114ZM51.3588 15.0733C53.2495 15.0733 54.7824 15.6354 56.0599 16.7085C57.2862 17.8327 58.0527 19.2123 58.3593 20.9497H44.1539C44.6138 19.2123 45.4314 17.8327 46.7089 16.7085C47.9352 15.6354 49.5193 15.0733 51.3588 15.0733Z"
                fill="white" />
            <path
                d="M86.9429 34.2863C86.9429 36.5347 86.2786 38.3742 84.899 39.805C83.5704 41.1846 81.8842 41.9 79.7891 41.9C78.8694 41.9 77.9496 41.7467 77.0809 41.4912C76.2122 41.2357 75.548 40.9291 74.9859 40.5714C74.4238 40.2137 73.9128 39.856 73.4018 39.3962C72.9419 38.9363 72.6354 38.6297 72.4821 38.4764C72.3288 38.3231 72.2266 38.1698 72.1244 38.0676L68.803 41.389L69.2118 41.9C69.4673 42.2577 69.9271 42.7176 70.5403 43.2285C71.1535 43.6884 71.8689 44.1994 72.6865 44.7104C73.504 45.1703 74.526 45.5791 75.8035 45.9368C77.0809 46.2944 78.4095 46.4988 79.7891 46.4988C83.2638 46.4988 86.1253 45.3236 88.5269 42.9731C90.8775 40.5714 92.0527 37.7099 92.0527 34.2352V11.241H86.9429V13.7959L86.0742 13.0294C85.5121 12.5184 84.6435 12.0074 83.4171 11.4965C82.1907 10.9855 80.8622 10.73 79.5336 10.73C76.4166 10.73 73.7595 11.9052 71.4601 14.3069C69.1607 16.7085 68.0365 19.57 68.0365 22.9936C68.0365 26.4172 69.1607 29.2787 71.4601 31.6803C73.7595 34.0819 76.4166 35.2572 79.5336 35.2572C80.4023 35.2572 81.2199 35.155 82.0885 34.9506C82.9061 34.6951 83.5704 34.4396 84.1325 34.1841C84.6946 33.9286 85.2055 33.622 85.6654 33.2644C86.1253 32.9067 86.483 32.6512 86.5852 32.549L86.9429 32.1913V34.2863ZM73.1463 22.9936C73.1463 20.8475 73.8106 19.059 75.1903 17.5772C76.5699 16.0953 78.2051 15.3288 80.0446 15.3288C81.8842 15.3288 83.5193 16.0953 84.899 17.5772C86.2275 19.059 86.9429 20.8475 86.9429 22.9936C86.9429 25.1397 86.2275 26.9282 84.899 28.41C83.5193 29.8919 81.8842 30.6583 80.0446 30.6583C78.2051 30.6583 76.5699 29.8919 75.1903 28.41C73.8106 26.9282 73.1463 25.1397 73.1463 22.9936Z"
                fill="white" />
            <path
                d="M118.724 35.7682V19.9277C118.724 17.3217 117.753 15.1244 115.863 13.3871C113.972 11.5987 111.519 10.73 108.504 10.73C107.329 10.73 106.154 10.8833 105.03 11.1899C103.906 11.5476 102.986 11.9052 102.321 12.314C101.657 12.7228 100.993 13.1827 100.38 13.7448C99.7666 14.2558 99.4089 14.6135 99.2045 14.8179C99.0512 15.0222 98.8979 15.1755 98.7957 15.3288L102.117 18.6502L102.781 17.7816C103.19 17.2195 103.906 16.7085 104.979 16.1464C106.052 15.5843 107.227 15.3288 108.504 15.3288C109.986 15.3288 111.213 15.7887 112.183 16.6574C113.154 17.5261 113.614 18.6502 113.614 19.9277L104.672 21.4606C102.475 21.8183 100.686 22.687 99.46 24.0667C98.1825 25.4463 97.5182 27.1326 97.5182 29.1254C97.5182 31.016 98.3358 32.6512 99.971 34.0819C101.657 35.5638 103.701 36.2792 106.205 36.2792C107.074 36.2792 107.891 36.177 108.709 35.9215C109.577 35.7171 110.242 35.4616 110.804 35.2061C111.366 34.9506 111.877 34.644 112.337 34.2863C112.797 33.9287 113.103 33.6732 113.308 33.571C113.461 33.4177 113.563 33.2644 113.614 33.2133V35.7682H118.724ZM106.971 31.6803C105.643 31.6803 104.57 31.3737 103.803 30.7606C102.986 30.1474 102.628 29.432 102.628 28.6144C102.628 27.7457 102.884 26.9793 103.446 26.4172C104.008 25.8551 104.774 25.4463 105.694 25.293L113.614 24.0156V24.5265C113.614 26.826 113.052 28.5633 111.877 29.8408C110.702 31.0671 109.066 31.6803 106.971 31.6803Z"
                fill="white" />
            <path d="M130 0H124.89V35.7689H130V0Z" fill="white" />
            <path d="M0 53.1185H1.59915V58.7253H5.06396V60.0283H0V53.1185Z" fill="white" />
            <path
                d="M15.5016 58.5477H12.2934L11.6814 60.0283H10.0428L13.1226 53.1185H14.702L17.7917 60.0283H16.1136L15.5016 58.5477ZM14.9982 57.3335L13.9025 54.688L12.8067 57.3335H14.9982Z"
                fill="white" />
            <path
                d="M33.5121 53.1185L31.2516 60.0283H29.534L28.0138 55.3494L26.4443 60.0283H24.7366L22.4662 53.1185H24.1245L25.6842 57.9751L27.313 53.1185H28.7937L30.3731 58.0146L31.9821 53.1185H33.5121Z"
                fill="white" />
            <path
                d="M50.5232 60.1468C49.819 60.1468 49.1807 59.9954 48.6082 59.6927C48.0422 59.3834 47.5947 58.959 47.2657 58.4193C46.9432 57.8731 46.782 57.2578 46.782 56.5734C46.782 55.889 46.9432 55.277 47.2657 54.7373C47.5947 54.1911 48.0422 53.7667 48.6082 53.464C49.1807 53.1547 49.8223 53 50.5331 53C51.1319 53 51.6716 53.1053 52.152 53.3159C52.6389 53.5265 53.047 53.8292 53.376 54.224L52.3494 55.1717C51.8821 54.6321 51.303 54.3622 50.612 54.3622C50.1843 54.3622 49.8026 54.4577 49.467 54.6485C49.1313 54.8328 48.8681 55.0927 48.6773 55.4283C48.493 55.764 48.4009 56.1456 48.4009 56.5734C48.4009 57.0012 48.493 57.3828 48.6773 57.7185C48.8681 58.0541 49.1313 58.3173 49.467 58.5082C49.8026 58.6924 50.1843 58.7846 50.612 58.7846C51.303 58.7846 51.8821 58.5115 52.3494 57.9653L53.376 58.9129C53.047 59.3143 52.6389 59.6203 52.152 59.8309C51.665 60.0415 51.1221 60.1468 50.5232 60.1468Z"
                fill="white" />
            <path
                d="M62.5933 60.1468C61.876 60.1468 61.2278 59.9922 60.6487 59.6829C60.0761 59.3736 59.6253 58.9491 59.2963 58.4095C58.9738 57.8632 58.8126 57.2512 58.8126 56.5734C58.8126 55.8956 58.9738 55.2868 59.2963 54.7472C59.6253 54.201 60.0761 53.7733 60.6487 53.464C61.2278 53.1547 61.876 53 62.5933 53C63.3106 53 63.9555 53.1547 64.5281 53.464C65.1006 53.7733 65.5514 54.201 65.8804 54.7472C66.2095 55.2868 66.374 55.8956 66.374 56.5734C66.374 57.2512 66.2095 57.8632 65.8804 58.4095C65.5514 58.9491 65.1006 59.3736 64.5281 59.6829C63.9555 59.9922 63.3106 60.1468 62.5933 60.1468ZM62.5933 58.7846C63.0013 58.7846 63.3698 58.6924 63.6989 58.5082C64.0279 58.3173 64.2846 58.0541 64.4688 57.7185C64.6597 57.3828 64.7551 57.0012 64.7551 56.5734C64.7551 56.1456 64.6597 55.764 64.4688 55.4283C64.2846 55.0927 64.0279 54.8328 63.6989 54.6485C63.3698 54.4577 63.0013 54.3622 62.5933 54.3622C62.1853 54.3622 61.8168 54.4577 61.4877 54.6485C61.1587 54.8328 60.8987 55.0927 60.7079 55.4283C60.5236 55.764 60.4315 56.1456 60.4315 56.5734C60.4315 57.0012 60.5236 57.3828 60.7079 57.7185C60.8987 58.0541 61.1587 58.3173 61.4877 58.5082C61.8168 58.6924 62.1853 58.7846 62.5933 58.7846Z"
                fill="white" />
            <path
                d="M78.7995 60.0283L78.7896 55.8824L76.7561 59.2979H76.0355L74.0119 55.9713V60.0283H72.5115V53.1185H73.8342L76.4205 57.4125L78.9673 53.1185H80.2802L80.2999 60.0283H78.7995Z"
                fill="white" />
            <path
                d="M89.8659 53.1185C90.478 53.1185 91.0077 53.2205 91.4552 53.4245C91.9093 53.6285 92.2581 53.918 92.5016 54.2931C92.7451 54.6682 92.8668 55.1125 92.8668 55.6258C92.8668 56.1325 92.7451 56.5767 92.5016 56.9584C92.2581 57.3335 91.9093 57.623 91.4552 57.8271C91.0077 58.0245 90.478 58.1232 89.8659 58.1232H88.4741V60.0283H86.8749V53.1185H89.8659ZM89.7771 56.8202C90.2575 56.8202 90.6227 56.7182 90.8728 56.5142C91.1229 56.3036 91.2479 56.0074 91.2479 55.6258C91.2479 55.2375 91.1229 54.9414 90.8728 54.7373C90.6227 54.5268 90.2575 54.4215 89.7771 54.4215H88.4741V56.8202H89.7771Z"
                fill="white" />
            <path
                d="M103.148 58.5477H99.9396L99.3276 60.0283H97.6889L100.769 53.1185H102.348L105.438 60.0283H103.76L103.148 58.5477ZM102.644 57.3335L101.549 54.688L100.453 57.3335H102.644Z"
                fill="white" />
            <path
                d="M117.428 53.1185V60.0283H116.115L112.67 55.8331V60.0283H111.09V53.1185H112.413L115.848 57.3137V53.1185H117.428Z"
                fill="white" />
            <path
                d="M127.315 57.5803V60.0283H125.716V57.5605L123.041 53.1185H124.739L126.585 56.1884L128.43 53.1185H130L127.315 57.5803Z"
                fill="white" />
            <path fill-rule="evenodd" clip-rule="evenodd" d="M149.175 0H155L139.825 47H134L149.175 0Z" fill="#F0145A" />
            <path
                d="M167.64 35.18C166.104 35.18 164.628 34.964 163.212 34.532C161.82 34.076 160.728 33.512 159.936 32.84L161.088 30.824C161.88 31.448 162.876 31.964 164.076 32.372C165.276 32.756 166.524 32.948 167.82 32.948C169.548 32.948 170.82 32.684 171.636 32.156C172.476 31.604 172.896 30.836 172.896 29.852C172.896 29.156 172.668 28.616 172.212 28.232C171.756 27.824 171.18 27.524 170.484 27.332C169.788 27.116 168.864 26.912 167.712 26.72C166.176 26.432 164.94 26.144 164.004 25.856C163.068 25.544 162.264 25.028 161.592 24.308C160.944 23.588 160.62 22.592 160.62 21.32C160.62 19.736 161.28 18.44 162.6 17.432C163.92 16.424 165.756 15.92 168.108 15.92C169.332 15.92 170.556 16.088 171.78 16.424C173.004 16.736 174.012 17.156 174.804 17.684L173.688 19.736C172.128 18.656 170.268 18.116 168.108 18.116C166.476 18.116 165.24 18.404 164.4 18.98C163.584 19.556 163.176 20.312 163.176 21.248C163.176 21.968 163.404 22.544 163.86 22.976C164.34 23.408 164.928 23.732 165.624 23.948C166.32 24.14 167.28 24.344 168.504 24.56C170.016 24.848 171.228 25.136 172.14 25.424C173.052 25.712 173.832 26.204 174.48 26.9C175.128 27.596 175.452 28.556 175.452 29.78C175.452 31.436 174.756 32.756 173.364 33.74C171.996 34.7 170.088 35.18 167.64 35.18ZM196.665 26.324H180.825C180.969 28.292 181.725 29.888 183.093 31.112C184.461 32.312 186.189 32.912 188.277 32.912C189.453 32.912 190.533 32.708 191.517 32.3C192.501 31.868 193.353 31.244 194.073 30.428L195.513 32.084C194.673 33.092 193.617 33.86 192.345 34.388C191.097 34.916 189.717 35.18 188.205 35.18C186.261 35.18 184.533 34.772 183.021 33.956C181.533 33.116 180.369 31.964 179.529 30.5C178.689 29.036 178.269 27.38 178.269 25.532C178.269 23.684 178.665 22.028 179.457 20.564C180.273 19.1 181.377 17.96 182.769 17.144C184.185 16.328 185.769 15.92 187.521 15.92C189.273 15.92 190.845 16.328 192.237 17.144C193.629 17.96 194.721 19.1 195.513 20.564C196.305 22.004 196.701 23.66 196.701 25.532L196.665 26.324ZM187.521 18.116C185.697 18.116 184.161 18.704 182.913 19.88C181.689 21.032 180.993 22.544 180.825 24.416H194.253C194.085 22.544 193.377 21.032 192.129 19.88C190.905 18.704 189.369 18.116 187.521 18.116ZM204.352 19.772C204.952 18.5 205.84 17.54 207.016 16.892C208.216 16.244 209.692 15.92 211.444 15.92V18.404L210.832 18.368C208.84 18.368 207.28 18.98 206.152 20.204C205.024 21.428 204.46 23.144 204.46 25.352V35H201.904V16.064H204.352V19.772ZM232.792 16.064L224.368 35H221.74L213.352 16.064H216.016L223.108 32.192L230.272 16.064H232.792ZM236.392 16.064H238.948V35H236.392V16.064ZM237.688 11.924C237.16 11.924 236.716 11.744 236.356 11.384C235.996 11.024 235.816 10.592 235.816 10.088C235.816 9.608 235.996 9.188 236.356 8.828C236.716 8.468 237.16 8.288 237.688 8.288C238.216 8.288 238.66 8.468 239.02 8.828C239.38 9.164 239.56 9.572 239.56 10.052C239.56 10.58 239.38 11.024 239.02 11.384C238.66 11.744 238.216 11.924 237.688 11.924ZM253.908 35.18C252.036 35.18 250.356 34.772 248.868 33.956C247.404 33.14 246.252 32 245.412 30.536C244.572 29.048 244.152 27.38 244.152 25.532C244.152 23.684 244.572 22.028 245.412 20.564C246.252 19.1 247.404 17.96 248.868 17.144C250.356 16.328 252.036 15.92 253.908 15.92C255.54 15.92 256.992 16.244 258.264 16.892C259.56 17.516 260.58 18.44 261.324 19.664L259.416 20.96C258.792 20.024 258 19.328 257.04 18.872C256.08 18.392 255.036 18.152 253.908 18.152C252.54 18.152 251.304 18.464 250.2 19.088C249.12 19.688 248.268 20.552 247.644 21.68C247.044 22.808 246.744 24.092 246.744 25.532C246.744 26.996 247.044 28.292 247.644 29.42C248.268 30.524 249.12 31.388 250.2 32.012C251.304 32.612 252.54 32.912 253.908 32.912C255.036 32.912 256.08 32.684 257.04 32.228C258 31.772 258.792 31.076 259.416 30.14L261.324 31.436C260.58 32.66 259.56 33.596 258.264 34.244C256.968 34.868 255.516 35.18 253.908 35.18ZM282.517 26.324H266.677C266.821 28.292 267.577 29.888 268.945 31.112C270.313 32.312 272.041 32.912 274.129 32.912C275.305 32.912 276.385 32.708 277.369 32.3C278.353 31.868 279.205 31.244 279.925 30.428L281.365 32.084C280.525 33.092 279.469 33.86 278.197 34.388C276.949 34.916 275.569 35.18 274.057 35.18C272.113 35.18 270.385 34.772 268.873 33.956C267.385 33.116 266.221 31.964 265.381 30.5C264.541 29.036 264.121 27.38 264.121 25.532C264.121 23.684 264.517 22.028 265.309 20.564C266.125 19.1 267.229 17.96 268.621 17.144C270.037 16.328 271.621 15.92 273.373 15.92C275.125 15.92 276.697 16.328 278.089 17.144C279.481 17.96 280.573 19.1 281.365 20.564C282.157 22.004 282.553 23.66 282.553 25.532L282.517 26.324ZM273.373 18.116C271.549 18.116 270.013 18.704 268.765 19.88C267.541 21.032 266.845 22.544 266.677 24.416H280.105C279.937 22.544 279.229 21.032 277.981 19.88C276.757 18.704 275.221 18.116 273.373 18.116ZM292.831 35.18C291.295 35.18 289.819 34.964 288.403 34.532C287.011 34.076 285.919 33.512 285.127 32.84L286.279 30.824C287.071 31.448 288.067 31.964 289.267 32.372C290.467 32.756 291.715 32.948 293.011 32.948C294.739 32.948 296.011 32.684 296.827 32.156C297.667 31.604 298.087 30.836 298.087 29.852C298.087 29.156 297.859 28.616 297.403 28.232C296.947 27.824 296.371 27.524 295.675 27.332C294.979 27.116 294.055 26.912 292.903 26.72C291.367 26.432 290.131 26.144 289.195 25.856C288.259 25.544 287.455 25.028 286.783 24.308C286.135 23.588 285.811 22.592 285.811 21.32C285.811 19.736 286.471 18.44 287.791 17.432C289.111 16.424 290.947 15.92 293.299 15.92C294.523 15.92 295.747 16.088 296.971 16.424C298.195 16.736 299.203 17.156 299.995 17.684L298.879 19.736C297.319 18.656 295.459 18.116 293.299 18.116C291.667 18.116 290.431 18.404 289.591 18.98C288.775 19.556 288.367 20.312 288.367 21.248C288.367 21.968 288.595 22.544 289.051 22.976C289.531 23.408 290.119 23.732 290.815 23.948C291.511 24.14 292.471 24.344 293.695 24.56C295.207 24.848 296.419 25.136 297.331 25.424C298.243 25.712 299.023 26.204 299.671 26.9C300.319 27.596 300.643 28.556 300.643 29.78C300.643 31.436 299.947 32.756 298.555 33.74C297.187 34.7 295.279 35.18 292.831 35.18Z"
                fill="white" />
        </g>
        <defs>
            <clipPath id="clip0_95529_3472__logo4Dark">
                <rect width="302" height="60" fill="white" />
            </clipPath>
        </defs>
    </symbol>
    <symbol id="logo4DarkClean" width="130" height="60" viewBox="0 0 130 60" fill="none"
        xmlns="http://www.w3.org/2000/svg">
        <g clip-path="url(#clip0_95843_2680__logo4DarkClean)">
            <path
                d="M4.95672 0H0V35.7986H4.95672V22.5177C4.95672 20.2709 5.51557 18.4984 6.63326 17.2502C7.75095 16.002 9.2817 15.353 11.1769 15.353C12.8049 15.353 14.1655 15.9521 15.2589 17.1004C16.3523 18.2738 16.9112 19.7466 16.9112 21.5191V35.8236H21.8922V21.5191C21.8922 18.2238 20.9932 15.6276 19.1951 13.6804C17.3971 11.7332 15.0402 10.7596 12.1731 10.7596C11.347 10.7596 10.5209 10.8594 9.71906 11.0841C8.89294 11.3088 8.2369 11.5584 7.70235 11.833C7.16781 12.1076 6.65756 12.4072 6.1959 12.7567C5.73424 13.1062 5.41838 13.3558 5.27259 13.5056C5.1268 13.6554 5.00532 13.7552 4.95672 13.8301V0Z"
                fill="#F0145A" />
            <path d="M32.9726 0H27.8628V35.7689H32.9726V0Z" fill="white" />
            <path
                d="M63.1114 25.2935L63.3669 22.7386C63.3669 19.315 62.2428 16.4535 59.9433 14.1541C57.6439 11.8546 54.7824 10.7305 51.3588 10.7305C47.9352 10.7305 44.9715 11.9568 42.5188 14.4096C40.0661 16.8623 38.8397 19.7749 38.8397 23.2496C38.8397 26.8265 40.1172 29.8924 42.621 32.4473C45.1248 35.0022 48.1396 36.2797 51.6143 36.2797C52.9429 36.2797 54.1692 36.0753 55.3956 35.7176C56.6219 35.3088 57.6439 34.9 58.3593 34.4912C59.1258 34.0313 59.8922 33.5204 60.5565 32.9583C61.2208 32.3962 61.6807 31.9874 61.8851 31.7319C62.0895 31.4764 62.2428 31.3231 62.345 31.1698L59.0236 27.8484L58.2571 28.8193C57.7461 29.4325 56.8774 30.0457 55.6511 30.7099C54.3736 31.3742 53.0451 31.6808 51.6143 31.6808C49.6215 31.6808 47.9352 31.0676 46.5045 29.7902C45.0737 28.5127 44.205 27.0309 43.9495 25.2935H63.1114ZM51.3588 15.0738C53.2494 15.0738 54.7824 15.6359 56.0599 16.709C57.2862 17.8331 58.0527 19.2128 58.3593 20.9501H44.1539C44.6138 19.2128 45.4314 17.8331 46.7089 16.709C47.9352 15.6359 49.5193 15.0738 51.3588 15.0738Z"
                fill="white" />
            <path
                d="M86.9429 34.2868C86.9429 36.5351 86.2786 38.3747 84.8989 39.8054C83.5704 41.1851 81.8841 41.9005 79.7891 41.9005C78.8693 41.9005 77.9496 41.7472 77.0809 41.4917C76.2122 41.2362 75.5479 40.9296 74.9859 40.5719C74.4238 40.2142 73.9128 39.8565 73.4018 39.3967C72.9419 38.9368 72.6353 38.6302 72.482 38.4769C72.3287 38.3236 72.2265 38.1703 72.1244 38.0681L68.803 41.3895L69.2117 41.9005C69.4672 42.2582 69.9271 42.718 70.5403 43.229C71.1535 43.6889 71.8689 44.1999 72.6864 44.7109C73.504 45.1708 74.526 45.5796 75.8034 45.9372C77.0809 46.2949 78.4094 46.4993 79.7891 46.4993C83.2638 46.4993 86.1253 45.3241 88.5269 42.9735C90.8774 40.5719 92.0527 37.7104 92.0527 34.2357V11.2415H86.9429V13.7964L86.0742 13.0299C85.5121 12.5189 84.6434 12.0079 83.4171 11.4969C82.1907 10.986 80.8622 10.7305 79.5336 10.7305C76.4166 10.7305 73.7595 11.9057 71.4601 14.3074C69.1606 16.709 68.0365 19.5705 68.0365 22.9941C68.0365 26.4177 69.1606 29.2792 71.4601 31.6808C73.7595 34.0824 76.4166 35.2577 79.5336 35.2577C80.4023 35.2577 81.2199 35.1555 82.0885 34.9511C82.9061 34.6956 83.5704 34.4401 84.1325 34.1846C84.6945 33.9291 85.2055 33.6225 85.6654 33.2648C86.1253 32.9072 86.483 32.6517 86.5852 32.5495L86.9429 32.1918V34.2868ZM73.1463 22.9941C73.1463 20.8479 73.8106 19.0595 75.1903 17.5777C76.5699 16.0958 78.2051 15.3293 80.0446 15.3293C81.8841 15.3293 83.5193 16.0958 84.8989 17.5777C86.2275 19.0595 86.9429 20.8479 86.9429 22.9941C86.9429 25.1402 86.2275 26.9287 84.8989 28.4105C83.5193 29.8924 81.8841 30.6588 80.0446 30.6588C78.2051 30.6588 76.5699 29.8924 75.1903 28.4105C73.8106 26.9287 73.1463 25.1402 73.1463 22.9941Z"
                fill="white" />
            <path
                d="M118.724 35.7687V19.9282C118.724 17.3222 117.753 15.1249 115.863 13.3876C113.972 11.5991 111.519 10.7305 108.504 10.7305C107.329 10.7305 106.154 10.8838 105.03 11.1904C103.906 11.548 102.986 11.9057 102.321 12.3145C101.657 12.7233 100.993 13.1832 100.38 13.7453C99.7666 14.2563 99.4089 14.6139 99.2045 14.8183C99.0512 15.0227 98.8979 15.176 98.7957 15.3293L102.117 18.6507L102.781 17.782C103.19 17.22 103.906 16.709 104.979 16.1469C106.052 15.5848 107.227 15.3293 108.504 15.3293C109.986 15.3293 111.213 15.7892 112.183 16.6579C113.154 17.5266 113.614 18.6507 113.614 19.9282L104.672 21.4611C102.475 21.8188 100.686 22.6875 99.46 24.0672C98.1825 25.4468 97.5182 27.1331 97.5182 29.1259C97.5182 31.0165 98.3358 32.6517 99.971 34.0824C101.657 35.5643 103.701 36.2797 106.205 36.2797C107.074 36.2797 107.891 36.1775 108.709 35.922C109.577 35.7176 110.242 35.4621 110.804 35.2066C111.366 34.9511 111.877 34.6445 112.337 34.2868C112.797 33.9291 113.103 33.6736 113.308 33.5715C113.461 33.4182 113.563 33.2649 113.614 33.2138V35.7687H118.724ZM106.971 31.6808C105.643 31.6808 104.57 31.3742 103.803 30.761C102.986 30.1479 102.628 29.4325 102.628 28.6149C102.628 27.7462 102.884 26.9798 103.446 26.4177C104.008 25.8556 104.774 25.4468 105.694 25.2935L113.614 24.0161V24.527C113.614 26.8265 113.052 28.5638 111.877 29.8413C110.702 31.0676 109.066 31.6808 106.971 31.6808Z"
                fill="white" />
            <path d="M130 0H124.89V35.7689H130V0Z" fill="white" />
            <path d="M0 53.1185H1.59915V58.7253H5.06396V60.0283H0V53.1185Z" fill="white" />
            <path
                d="M15.5016 58.5477H12.2934L11.6814 60.0283H10.0428L13.1226 53.1185H14.702L17.7917 60.0283H16.1136L15.5016 58.5477ZM14.9982 57.3335L13.9025 54.688L12.8067 57.3335H14.9982Z"
                fill="white" />
            <path
                d="M33.5121 53.1185L31.2516 60.0283H29.534L28.0138 55.3494L26.4443 60.0283H24.7366L22.4662 53.1185H24.1245L25.6842 57.9751L27.313 53.1185H28.7937L30.3731 58.0146L31.9821 53.1185H33.5121Z"
                fill="white" />
            <path
                d="M50.5232 60.1468C49.819 60.1468 49.1807 59.9954 48.6082 59.6927C48.0422 59.3834 47.5947 58.959 47.2657 58.4193C46.9432 57.8731 46.782 57.2578 46.782 56.5734C46.782 55.889 46.9432 55.277 47.2657 54.7373C47.5947 54.1911 48.0422 53.7667 48.6082 53.464C49.1807 53.1547 49.8223 53 50.5331 53C51.1319 53 51.6716 53.1053 52.152 53.3159C52.6389 53.5265 53.047 53.8292 53.376 54.224L52.3494 55.1717C51.8821 54.6321 51.303 54.3622 50.612 54.3622C50.1843 54.3622 49.8026 54.4577 49.467 54.6485C49.1313 54.8328 48.8681 55.0927 48.6773 55.4283C48.493 55.764 48.4009 56.1456 48.4009 56.5734C48.4009 57.0012 48.493 57.3828 48.6773 57.7185C48.8681 58.0541 49.1313 58.3173 49.467 58.5082C49.8026 58.6924 50.1843 58.7846 50.612 58.7846C51.303 58.7846 51.8821 58.5115 52.3494 57.9653L53.376 58.9129C53.047 59.3143 52.6389 59.6203 52.152 59.8309C51.665 60.0415 51.1221 60.1468 50.5232 60.1468Z"
                fill="white" />
            <path
                d="M62.5933 60.1468C61.876 60.1468 61.2278 59.9922 60.6487 59.6829C60.0761 59.3736 59.6253 58.9491 59.2963 58.4095C58.9738 57.8632 58.8126 57.2512 58.8126 56.5734C58.8126 55.8956 58.9738 55.2868 59.2963 54.7472C59.6253 54.201 60.0761 53.7733 60.6487 53.464C61.2278 53.1547 61.876 53 62.5933 53C63.3106 53 63.9555 53.1547 64.5281 53.464C65.1006 53.7733 65.5514 54.201 65.8804 54.7472C66.2095 55.2868 66.374 55.8956 66.374 56.5734C66.374 57.2512 66.2095 57.8632 65.8804 58.4095C65.5514 58.9491 65.1006 59.3736 64.5281 59.6829C63.9555 59.9922 63.3106 60.1468 62.5933 60.1468ZM62.5933 58.7846C63.0013 58.7846 63.3698 58.6924 63.6989 58.5082C64.0279 58.3173 64.2846 58.0541 64.4688 57.7185C64.6597 57.3828 64.7551 57.0012 64.7551 56.5734C64.7551 56.1456 64.6597 55.764 64.4688 55.4283C64.2846 55.0927 64.0279 54.8328 63.6989 54.6485C63.3698 54.4577 63.0013 54.3622 62.5933 54.3622C62.1853 54.3622 61.8168 54.4577 61.4877 54.6485C61.1587 54.8328 60.8987 55.0927 60.7079 55.4283C60.5236 55.764 60.4315 56.1456 60.4315 56.5734C60.4315 57.0012 60.5236 57.3828 60.7079 57.7185C60.8987 58.0541 61.1587 58.3173 61.4877 58.5082C61.8168 58.6924 62.1853 58.7846 62.5933 58.7846Z"
                fill="white" />
            <path
                d="M78.7995 60.0283L78.7896 55.8824L76.7561 59.2979H76.0355L74.0119 55.9713V60.0283H72.5115V53.1185H73.8342L76.4205 57.4125L78.9673 53.1185H80.2802L80.2999 60.0283H78.7995Z"
                fill="white" />
            <path
                d="M89.8659 53.1185C90.478 53.1185 91.0077 53.2205 91.4552 53.4245C91.9093 53.6285 92.2581 53.918 92.5016 54.2931C92.7451 54.6682 92.8668 55.1125 92.8668 55.6258C92.8668 56.1325 92.7451 56.5767 92.5016 56.9584C92.2581 57.3335 91.9093 57.623 91.4552 57.8271C91.0077 58.0245 90.478 58.1232 89.8659 58.1232H88.4741V60.0283H86.8749V53.1185H89.8659ZM89.7771 56.8202C90.2575 56.8202 90.6227 56.7182 90.8728 56.5142C91.1229 56.3036 91.2479 56.0074 91.2479 55.6258C91.2479 55.2375 91.1229 54.9414 90.8728 54.7373C90.6227 54.5268 90.2575 54.4215 89.7771 54.4215H88.4741V56.8202H89.7771Z"
                fill="white" />
            <path
                d="M103.148 58.5477H99.9396L99.3276 60.0283H97.6889L100.769 53.1185H102.348L105.438 60.0283H103.76L103.148 58.5477ZM102.644 57.3335L101.549 54.688L100.453 57.3335H102.644Z"
                fill="white" />
            <path
                d="M117.428 53.1185V60.0283H116.115L112.67 55.8331V60.0283H111.09V53.1185H112.413L115.848 57.3137V53.1185H117.428Z"
                fill="white" />
            <path
                d="M127.315 57.5803V60.0283H125.716V57.5605L123.041 53.1185H124.739L126.585 56.1884L128.43 53.1185H130L127.315 57.5803Z"
                fill="white" />
        </g>
        <defs>
            <clipPath id="clip0_95843_2680__logo4DarkClean">
                <rect width="130" height="60" fill="white" />
            </clipPath>
        </defs>
    </symbol>
    <symbol id="logo4Light" width="297" height="60" viewBox="0 0 297 60" fill="none" xmlns="http://www.w3.org/2000/svg">
        <g clip-path="url(#clip0_96107_2044__logo4Light)">
            <path
                d="M4.95672 0H0V35.7986H4.95672V22.5177C4.95672 20.2709 5.51557 18.4984 6.63326 17.2502C7.75095 16.002 9.2817 15.353 11.1769 15.353C12.8049 15.353 14.1655 15.9521 15.2589 17.1004C16.3523 18.2738 16.9112 19.7466 16.9112 21.5191V35.8236H21.8922V21.5191C21.8922 18.2238 20.9932 15.6276 19.1951 13.6804C17.3971 11.7332 15.0402 10.7596 12.1731 10.7596C11.347 10.7596 10.5209 10.8594 9.71906 11.0841C8.89294 11.3088 8.2369 11.5584 7.70235 11.833C7.16781 12.1076 6.65756 12.4072 6.1959 12.7567C5.73424 13.1062 5.41838 13.3558 5.27259 13.5056C5.1268 13.6554 5.00532 13.7552 4.95672 13.8301V0Z"
                fill="#F0145A" />
            <path d="M32.9726 0H27.8628V35.7689H32.9726V0Z" fill="#323264" />
            <path
                d="M63.1114 25.293L63.3669 22.7381C63.3669 19.3145 62.2428 16.453 59.9433 14.1536C57.6439 11.8541 54.7824 10.73 51.3588 10.73C47.9352 10.73 44.9715 11.9563 42.5188 14.4091C40.0661 16.8618 38.8397 19.7744 38.8397 23.2491C38.8397 26.826 40.1172 29.8919 42.621 32.4468C45.1248 35.0017 48.1396 36.2792 51.6143 36.2792C52.9429 36.2792 54.1692 36.0748 55.3956 35.7171C56.6219 35.3083 57.6439 34.8995 58.3593 34.4907C59.1258 34.0308 59.8922 33.5199 60.5565 32.9578C61.2208 32.3957 61.6807 31.9869 61.8851 31.7314C62.0895 31.4759 62.2428 31.3226 62.345 31.1693L59.0236 27.8479L58.2571 28.8188C57.7461 29.432 56.8774 30.0452 55.6511 30.7095C54.3736 31.3737 53.0451 31.6803 51.6143 31.6803C49.6215 31.6803 47.9352 31.0671 46.5045 29.7897C45.0737 28.5122 44.205 27.0304 43.9495 25.293H63.1114ZM51.3588 15.0733C53.2494 15.0733 54.7824 15.6354 56.0599 16.7085C57.2862 17.8327 58.0527 19.2123 58.3593 20.9497H44.1539C44.6138 19.2123 45.4314 17.8327 46.7089 16.7085C47.9352 15.6354 49.5193 15.0733 51.3588 15.0733Z"
                fill="#323264" />
            <path
                d="M86.9429 34.2863C86.9429 36.5347 86.2786 38.3742 84.8989 39.805C83.5704 41.1846 81.8841 41.9 79.7891 41.9C78.8693 41.9 77.9496 41.7467 77.0809 41.4912C76.2122 41.2357 75.5479 40.9291 74.9859 40.5714C74.4238 40.2137 73.9128 39.856 73.4018 39.3962C72.9419 38.9363 72.6353 38.6297 72.482 38.4764C72.3287 38.3231 72.2265 38.1698 72.1244 38.0676L68.803 41.389L69.2117 41.9C69.4672 42.2577 69.9271 42.7176 70.5403 43.2285C71.1535 43.6884 71.8689 44.1994 72.6864 44.7104C73.504 45.1703 74.526 45.5791 75.8034 45.9368C77.0809 46.2944 78.4094 46.4988 79.7891 46.4988C83.2638 46.4988 86.1253 45.3236 88.5269 42.9731C90.8774 40.5714 92.0527 37.7099 92.0527 34.2352V11.241H86.9429V13.7959L86.0742 13.0294C85.5121 12.5184 84.6434 12.0074 83.4171 11.4965C82.1907 10.9855 80.8622 10.73 79.5336 10.73C76.4166 10.73 73.7595 11.9052 71.4601 14.3069C69.1606 16.7085 68.0365 19.57 68.0365 22.9936C68.0365 26.4172 69.1606 29.2787 71.4601 31.6803C73.7595 34.0819 76.4166 35.2572 79.5336 35.2572C80.4023 35.2572 81.2199 35.155 82.0885 34.9506C82.9061 34.6951 83.5704 34.4396 84.1325 34.1841C84.6945 33.9286 85.2055 33.622 85.6654 33.2644C86.1253 32.9067 86.483 32.6512 86.5852 32.549L86.9429 32.1913V34.2863ZM73.1463 22.9936C73.1463 20.8475 73.8106 19.059 75.1903 17.5772C76.5699 16.0953 78.2051 15.3288 80.0446 15.3288C81.8841 15.3288 83.5193 16.0953 84.8989 17.5772C86.2275 19.059 86.9429 20.8475 86.9429 22.9936C86.9429 25.1397 86.2275 26.9282 84.8989 28.41C83.5193 29.8919 81.8841 30.6583 80.0446 30.6583C78.2051 30.6583 76.5699 29.8919 75.1903 28.41C73.8106 26.9282 73.1463 25.1397 73.1463 22.9936Z"
                fill="#323264" />
            <path
                d="M118.724 35.7682V19.9277C118.724 17.3217 117.753 15.1244 115.863 13.3871C113.972 11.5987 111.519 10.73 108.504 10.73C107.329 10.73 106.154 10.8833 105.03 11.1899C103.906 11.5476 102.986 11.9052 102.321 12.314C101.657 12.7228 100.993 13.1827 100.38 13.7448C99.7666 14.2558 99.4089 14.6135 99.2045 14.8179C99.0512 15.0222 98.8979 15.1755 98.7957 15.3288L102.117 18.6502L102.781 17.7816C103.19 17.2195 103.906 16.7085 104.979 16.1464C106.052 15.5843 107.227 15.3288 108.504 15.3288C109.986 15.3288 111.213 15.7887 112.183 16.6574C113.154 17.5261 113.614 18.6502 113.614 19.9277L104.672 21.4606C102.475 21.8183 100.686 22.687 99.46 24.0667C98.1825 25.4463 97.5182 27.1326 97.5182 29.1254C97.5182 31.016 98.3358 32.6512 99.971 34.0819C101.657 35.5638 103.701 36.2792 106.205 36.2792C107.074 36.2792 107.891 36.177 108.709 35.9215C109.577 35.7171 110.242 35.4616 110.804 35.2061C111.366 34.9506 111.877 34.644 112.337 34.2863C112.797 33.9287 113.103 33.6732 113.308 33.571C113.461 33.4177 113.563 33.2644 113.614 33.2133V35.7682H118.724ZM106.971 31.6803C105.643 31.6803 104.57 31.3737 103.803 30.7606C102.986 30.1474 102.628 29.432 102.628 28.6144C102.628 27.7457 102.884 26.9793 103.446 26.4172C104.008 25.8551 104.774 25.4463 105.694 25.293L113.614 24.0156V24.5265C113.614 26.826 113.052 28.5633 111.877 29.8408C110.702 31.0671 109.066 31.6803 106.971 31.6803Z"
                fill="#323264" />
            <path d="M130 0H124.89V35.7689H130V0Z" fill="#323264" />
            <path d="M0 53.1185H1.59915V58.7253H5.06396V60.0283H0V53.1185Z" fill="#323264" />
            <path
                d="M15.5016 58.5477H12.2934L11.6814 60.0283H10.0428L13.1226 53.1185H14.702L17.7917 60.0283H16.1136L15.5016 58.5477ZM14.9982 57.3335L13.9025 54.688L12.8067 57.3335H14.9982Z"
                fill="#323264" />
            <path
                d="M33.5121 53.1185L31.2516 60.0283H29.534L28.0138 55.3494L26.4443 60.0283H24.7366L22.4662 53.1185H24.1245L25.6842 57.9751L27.313 53.1185H28.7937L30.3731 58.0146L31.9821 53.1185H33.5121Z"
                fill="#323264" />
            <path
                d="M50.5232 60.1468C49.819 60.1468 49.1807 59.9954 48.6082 59.6927C48.0422 59.3834 47.5947 58.959 47.2657 58.4193C46.9432 57.8731 46.782 57.2578 46.782 56.5734C46.782 55.889 46.9432 55.277 47.2657 54.7373C47.5947 54.1911 48.0422 53.7667 48.6082 53.464C49.1807 53.1547 49.8223 53 50.5331 53C51.1319 53 51.6716 53.1053 52.152 53.3159C52.6389 53.5265 53.047 53.8292 53.376 54.224L52.3494 55.1717C51.8821 54.6321 51.303 54.3622 50.612 54.3622C50.1843 54.3622 49.8026 54.4577 49.467 54.6485C49.1313 54.8328 48.8681 55.0927 48.6773 55.4283C48.493 55.764 48.4009 56.1456 48.4009 56.5734C48.4009 57.0012 48.493 57.3828 48.6773 57.7185C48.8681 58.0541 49.1313 58.3173 49.467 58.5082C49.8026 58.6924 50.1843 58.7846 50.612 58.7846C51.303 58.7846 51.8821 58.5115 52.3494 57.9653L53.376 58.9129C53.047 59.3143 52.6389 59.6203 52.152 59.8309C51.665 60.0415 51.1221 60.1468 50.5232 60.1468Z"
                fill="#323264" />
            <path
                d="M62.5933 60.1468C61.876 60.1468 61.2278 59.9922 60.6487 59.6829C60.0761 59.3736 59.6253 58.9491 59.2963 58.4095C58.9738 57.8632 58.8126 57.2512 58.8126 56.5734C58.8126 55.8956 58.9738 55.2868 59.2963 54.7472C59.6253 54.201 60.0761 53.7733 60.6487 53.464C61.2278 53.1547 61.876 53 62.5933 53C63.3106 53 63.9555 53.1547 64.5281 53.464C65.1006 53.7733 65.5514 54.201 65.8804 54.7472C66.2095 55.2868 66.374 55.8956 66.374 56.5734C66.374 57.2512 66.2095 57.8632 65.8804 58.4095C65.5514 58.9491 65.1006 59.3736 64.5281 59.6829C63.9555 59.9922 63.3106 60.1468 62.5933 60.1468ZM62.5933 58.7846C63.0013 58.7846 63.3698 58.6924 63.6989 58.5082C64.0279 58.3173 64.2846 58.0541 64.4688 57.7185C64.6597 57.3828 64.7551 57.0012 64.7551 56.5734C64.7551 56.1456 64.6597 55.764 64.4688 55.4283C64.2846 55.0927 64.0279 54.8328 63.6989 54.6485C63.3698 54.4577 63.0013 54.3622 62.5933 54.3622C62.1853 54.3622 61.8168 54.4577 61.4877 54.6485C61.1587 54.8328 60.8987 55.0927 60.7079 55.4283C60.5236 55.764 60.4315 56.1456 60.4315 56.5734C60.4315 57.0012 60.5236 57.3828 60.7079 57.7185C60.8987 58.0541 61.1587 58.3173 61.4877 58.5082C61.8168 58.6924 62.1853 58.7846 62.5933 58.7846Z"
                fill="#323264" />
            <path
                d="M78.7995 60.0283L78.7896 55.8824L76.7561 59.2979H76.0355L74.0119 55.9713V60.0283H72.5115V53.1185H73.8342L76.4205 57.4125L78.9673 53.1185H80.2802L80.2999 60.0283H78.7995Z"
                fill="#323264" />
            <path
                d="M89.8659 53.1185C90.478 53.1185 91.0077 53.2205 91.4552 53.4245C91.9093 53.6285 92.2581 53.918 92.5016 54.2931C92.7451 54.6682 92.8668 55.1125 92.8668 55.6258C92.8668 56.1325 92.7451 56.5767 92.5016 56.9584C92.2581 57.3335 91.9093 57.623 91.4552 57.8271C91.0077 58.0245 90.478 58.1232 89.8659 58.1232H88.4741V60.0283H86.8749V53.1185H89.8659ZM89.7771 56.8202C90.2575 56.8202 90.6227 56.7182 90.8728 56.5142C91.1229 56.3036 91.2479 56.0074 91.2479 55.6258C91.2479 55.2375 91.1229 54.9414 90.8728 54.7373C90.6227 54.5268 90.2575 54.4215 89.7771 54.4215H88.4741V56.8202H89.7771Z"
                fill="#323264" />
            <path
                d="M103.148 58.5477H99.9396L99.3276 60.0283H97.6889L100.769 53.1185H102.348L105.438 60.0283H103.76L103.148 58.5477ZM102.644 57.3335L101.549 54.688L100.453 57.3335H102.644Z"
                fill="#323264" />
            <path
                d="M117.428 53.1185V60.0283H116.115L112.67 55.8331V60.0283H111.09V53.1185H112.413L115.848 57.3137V53.1185H117.428Z"
                fill="#323264" />
            <path
                d="M127.315 57.5803V60.0283H125.716V57.5605L123.041 53.1185H124.739L126.585 56.1884L128.43 53.1185H130L127.315 57.5803Z"
                fill="#323264" />
            <path fill-rule="evenodd" clip-rule="evenodd" d="M149.175 0H155L139.825 47H134L149.175 0Z" fill="#F0145A" />
            <path
                d="M170.412 35.18C168.54 35.18 166.86 34.772 165.372 33.956C163.908 33.14 162.756 32 161.916 30.536C161.076 29.048 160.656 27.38 160.656 25.532C160.656 23.684 161.076 22.028 161.916 20.564C162.756 19.1 163.908 17.96 165.372 17.144C166.86 16.328 168.54 15.92 170.412 15.92C172.044 15.92 173.496 16.244 174.768 16.892C176.064 17.516 177.084 18.44 177.828 19.664L175.92 20.96C175.296 20.024 174.504 19.328 173.544 18.872C172.584 18.392 171.54 18.152 170.412 18.152C169.044 18.152 167.808 18.464 166.704 19.088C165.624 19.688 164.772 20.552 164.148 21.68C163.548 22.808 163.248 24.092 163.248 25.532C163.248 26.996 163.548 28.292 164.148 29.42C164.772 30.524 165.624 31.388 166.704 32.012C167.808 32.612 169.044 32.912 170.412 32.912C171.54 32.912 172.584 32.684 173.544 32.228C174.504 31.772 175.296 31.076 175.92 30.14L177.828 31.436C177.084 32.66 176.064 33.596 174.768 34.244C173.472 34.868 172.02 35.18 170.412 35.18ZM190.273 35.18C188.449 35.18 186.805 34.772 185.341 33.956C183.877 33.116 182.725 31.964 181.885 30.5C181.045 29.036 180.625 27.38 180.625 25.532C180.625 23.684 181.045 22.028 181.885 20.564C182.725 19.1 183.877 17.96 185.341 17.144C186.805 16.328 188.449 15.92 190.273 15.92C192.097 15.92 193.741 16.328 195.205 17.144C196.669 17.96 197.809 19.1 198.625 20.564C199.465 22.028 199.885 23.684 199.885 25.532C199.885 27.38 199.465 29.036 198.625 30.5C197.809 31.964 196.669 33.116 195.205 33.956C193.741 34.772 192.097 35.18 190.273 35.18ZM190.273 32.912C191.617 32.912 192.817 32.612 193.873 32.012C194.953 31.388 195.793 30.512 196.393 29.384C196.993 28.256 197.293 26.972 197.293 25.532C197.293 24.092 196.993 22.808 196.393 21.68C195.793 20.552 194.953 19.688 193.873 19.088C192.817 18.464 191.617 18.152 190.273 18.152C188.929 18.152 187.717 18.464 186.637 19.088C185.581 19.688 184.741 20.552 184.117 21.68C183.517 22.808 183.217 24.092 183.217 25.532C183.217 26.972 183.517 28.256 184.117 29.384C184.741 30.512 185.581 31.388 186.637 32.012C187.717 32.612 188.929 32.912 190.273 32.912ZM214.751 15.92C217.127 15.92 219.011 16.616 220.403 18.008C221.819 19.376 222.527 21.38 222.527 24.02V35H219.971V24.272C219.971 22.304 219.479 20.804 218.495 19.772C217.511 18.74 216.107 18.224 214.283 18.224C212.243 18.224 210.623 18.836 209.423 20.06C208.247 21.26 207.659 22.928 207.659 25.064V35H205.103V16.064H207.551V19.556C208.247 18.404 209.207 17.516 210.431 16.892C211.679 16.244 213.119 15.92 214.751 15.92ZM239.438 33.848C238.958 34.28 238.358 34.616 237.638 34.856C236.942 35.072 236.21 35.18 235.442 35.18C233.666 35.18 232.298 34.7 231.338 33.74C230.378 32.78 229.898 31.424 229.898 29.672V18.224H226.514V16.064H229.898V11.924H232.454V16.064H238.214V18.224H232.454V29.528C232.454 30.656 232.73 31.52 233.282 32.12C233.858 32.696 234.674 32.984 235.73 32.984C236.258 32.984 236.762 32.9 237.242 32.732C237.746 32.564 238.178 32.324 238.538 32.012L239.438 33.848ZM250.715 15.92C253.187 15.92 255.083 16.544 256.403 17.792C257.723 19.016 258.383 20.84 258.383 23.264V35H255.935V32.048C255.359 33.032 254.507 33.8 253.379 34.352C252.275 34.904 250.955 35.18 249.419 35.18C247.307 35.18 245.627 34.676 244.379 33.668C243.131 32.66 242.507 31.328 242.507 29.672C242.507 28.064 243.083 26.768 244.235 25.784C245.411 24.8 247.271 24.308 249.815 24.308H255.827V23.156C255.827 21.524 255.371 20.288 254.459 19.448C253.547 18.584 252.215 18.152 250.463 18.152C249.263 18.152 248.111 18.356 247.007 18.764C245.903 19.148 244.955 19.688 244.163 20.384L243.011 18.476C243.971 17.66 245.123 17.036 246.467 16.604C247.811 16.148 249.227 15.92 250.715 15.92ZM249.815 33.164C251.255 33.164 252.491 32.84 253.523 32.192C254.555 31.52 255.323 30.56 255.827 29.312V26.216H249.887C246.647 26.216 245.027 27.344 245.027 29.6C245.027 30.704 245.447 31.58 246.287 32.228C247.127 32.852 248.303 33.164 249.815 33.164ZM273.244 35.18C271.372 35.18 269.692 34.772 268.204 33.956C266.74 33.14 265.588 32 264.748 30.536C263.908 29.048 263.488 27.38 263.488 25.532C263.488 23.684 263.908 22.028 264.748 20.564C265.588 19.1 266.74 17.96 268.204 17.144C269.692 16.328 271.372 15.92 273.244 15.92C274.876 15.92 276.328 16.244 277.6 16.892C278.896 17.516 279.916 18.44 280.66 19.664L278.752 20.96C278.128 20.024 277.336 19.328 276.376 18.872C275.416 18.392 274.372 18.152 273.244 18.152C271.876 18.152 270.64 18.464 269.536 19.088C268.456 19.688 267.604 20.552 266.98 21.68C266.38 22.808 266.08 24.092 266.08 25.532C266.08 26.996 266.38 28.292 266.98 29.42C267.604 30.524 268.456 31.388 269.536 32.012C270.64 32.612 271.876 32.912 273.244 32.912C274.372 32.912 275.416 32.684 276.376 32.228C277.336 31.772 278.128 31.076 278.752 30.14L280.66 31.436C279.916 32.66 278.896 33.596 277.6 34.244C276.304 34.868 274.852 35.18 273.244 35.18ZM295.864 33.848C295.384 34.28 294.784 34.616 294.064 34.856C293.368 35.072 292.636 35.18 291.868 35.18C290.092 35.18 288.724 34.7 287.764 33.74C286.804 32.78 286.324 31.424 286.324 29.672V18.224H282.94V16.064H286.324V11.924H288.88V16.064H294.64V18.224H288.88V29.528C288.88 30.656 289.156 31.52 289.708 32.12C290.284 32.696 291.1 32.984 292.156 32.984C292.684 32.984 293.188 32.9 293.668 32.732C294.172 32.564 294.604 32.324 294.964 32.012L295.864 33.848Z"
                fill="#323264" />
        </g>
        <defs>
            <clipPath id="clip0_96107_2044__logo4Light">
                <rect width="297" height="60" fill="white" />
            </clipPath>
        </defs>
    </symbol>
    <symbol id="scrollBtn" width="42" height="42" viewBox="0 0 42 42" fill="none" xmlns="http://www.w3.org/2000/svg">
        <g clip-path="url(#clip0_22728_11339__scrollBtn)">
            <circle opacity="0.5" cx="21" cy="21" r="20" stroke="white" stroke-width="2" />
            <path d="M12 18L21 27L30 18" stroke="white" stroke-width="2" />
        </g>
        <defs>
            <clipPath id="clip0_22728_11339__scrollBtn">
                <rect width="42" height="42" fill="white" />
            </clipPath>
        </defs>
    </symbol>
</svg>